<svg xmlns="http://www.w3.org/2000/svg" viewBox="0 0 100 100">
  <defs>
    <linearGradient id="logo-grad-1" x1="0%" y1="0%" x2="100%" y2="100%">
      <stop offset="0%" stop-color="#00ff88"/>
      <stop offset="100%" stop-color="#8800ff"/>
    </linearGradient>
  </defs>
  <circle cx="50" cy="50" r="46" fill="none" stroke="url(#logo-grad-1)" stroke-width="3.5" stroke-dasharray="12 6 36 6" opacity="0.85"/>
  <!-- 竞彩三色彩带绕行线 -->
  <path d="M 12 50 A 38 38 0 1 1 88 50" fill="none" stroke="#00ff88" stroke-width="4.5" stroke-linecap="round"/>
  <path d="M 88 50 A 38 38 0 0 1 12 50" fill="none" stroke="#ffb700" stroke-width="4.5" stroke-linecap="round"/>
  <path d="M 20 50 A 30 30 0 0 1 80 50" fill="none" stroke="#ff4a4a" stroke-width="3" stroke-linecap="round" opacity="0.8"/>
  <!-- 核心足球主体 -->
  <circle cx="50" cy="50" r="23" fill="#0b0f17" stroke="white" stroke-width="1.8"/>
  <polygon points="50,38 61,46 57,59 43,59 39,46" fill="url(#logo-grad-1)"/>
  <line x1="50" y1="38" x2="50" y2="27" stroke="white" stroke-width="1.5"/>
  <line x1="61" y1="46" x2="71" y2="43" stroke="white" stroke-width="1.5"/>
  <line x1="57" y1="59" x2="64" y2="68" stroke="white" stroke-width="1.5"/>
  <line x1="43" y1="59" x2="36" y2="68" stroke="white" stroke-width="1.5"/>
  <line x1="39" y1="46" x2="29" y2="43" stroke="white" stroke-width="1.5"/>
  <!-- 足球边缘细节边面 -->
  <polygon points="50,27 43,21 57,21" fill="white" opacity="0.4"/>
  <polygon points="71,43 77,34 81,46" fill="white" opacity="0.4"/>
  <polygon points="64,68 74,67 67,74" fill="white" opacity="0.4"/>
  <polygon points="36,68 26,67 33,74" fill="white" opacity="0.4"/>
  <polygon points="29,43 23,34 19,46" fill="white" opacity="0.4"/>
</svg>
